PathFileType	4	(X/Y/Z)	69_1_41_p0_0-246_filt_butterworth.trc
DataRate	CameraRate	NumFrames	NumMarkers	Units	OrigDataRate	OrigDataStartFrame	OrigNumFrames
60.0	60.0	5	27	m	60.0	215	246
Frame#	Time	RHip			RKnee			RAnkle			RBigToe			RSmallToe			RHeel			LHip			LKnee			LAnkle			LBigToe			LSmallToe			LHeel			Neck			Head			Nose			RShoulder			RElbow			RWrist			RThumb			RIndex			RPinky			LShoulder			LElbow			LWrist			LThumb			LIndex			LPinky			
		X1	Y1	Z1	X2	Y2	Z2	X3	Y3	Z3	X4	Y4	Z4	X5	Y5	Z5	X6	Y6	Z6	X7	Y7	Z7	X8	Y8	Z8	X9	Y9	Z9	X10	Y10	Z10	X11	Y11	Z11	X12	Y12	Z12	X13	Y13	Z13	X14	Y14	Z14	X15	Y15	Z15	X16	Y16	Z16	X17	Y17	Z17	X18	Y18	Z18	X19	Y19	Z19	X20	Y20	Z20	X21	Y21	Z21	X22	Y22	Z22	X23	Y23	Z23	X24	Y24	Z24	X25	Y25	Z25	X26	Y26	Z26	X27	Y27	Z27	
215	3.583333333333333	0.29504319435387283	0.5577961181742818	0.47893313750024746	0.2483816421726682	0.5539522524824763	0.9045299267835766	0.21746359612049293	0.5692903111992202	1.3134601479057157	0.25077817412602105	0.43492906569897694	1.3409649156126022	0.3099779621470744	0.479573784219964	1.3314166787146362	0.1693844621146965	0.6652368428250347	1.3857401558593097	0.11267373309889084	0.46545347040965696	0.4563280632054295	0.0508988412450318	0.5228478101908303	0.9077851176328913	0.03125392782927516	0.5608574946566631	1.3272619714779084	0.12041943382715745	0.3663094081312091	1.3132827070928985	0.06849351437571444	0.38951751523890527	1.3071617641294684	0.02183884024093276	0.6031355682417343	1.3905576837221292	0.2164970709363441	0.5265306436313227	-0.016227503076064898	0.24797041736428813	0.4703755334557026	-0.25639618661550645	0.253848234064346	0.4329492437184799	-0.13222323371976813	0.3643212089179501	0.5567058169539542	0.06250217115268918	0.37604017492698005	0.6096147951436937	0.33155972986551485	0.41719486167194847	0.4890887391228457	0.5480011334611145	0.3592831537671146	0.5115425844790905	0.6715309655256501	0.3996602101097462	0.4793673479835077	0.6918408011544281	0.43457691567726653	0.5332715961696263	0.6779794039268313	0.06713968614149496	0.4819291700547978	0.04744289921015825	0.03981449674188629	0.428254725541515	0.29271092686393063	0.020546038339803525	0.38915884198087736	0.5103196750493275	0.0467496463401361	0.3925991005728488	0.6373970996556517	0.03026688010678249	0.35788659177491533	0.6515338044062	-0.025585260674988418	0.3766078737453926	0.6463069899889389
216	3.6	0.29572262592991816	0.5579008584952503	0.47945621726703813	0.24722009915895582	0.5488482277693356	0.903308323164399	0.21752761246938884	0.5691825089172238	1.3133910387087706	0.250954323303263	0.43279560900894815	1.339850366597506	0.3100333977960195	0.47969659704648554	1.331390653678518	0.16999269662490063	0.6581818423022548	1.3853214308253565	0.11275055831972644	0.46558143155374665	0.45904250918369727	0.051020416538611425	0.5227447487738539	0.9077618401966937	0.031150832866573788	0.5622445048443496	1.3278496562678153	0.12271557910753322	0.365061639478486	1.313783309200579	0.07105691246085727	0.38661852330656077	1.3051949083546217	0.022139192217499513	0.6019477221423589	1.3887315049836197	0.21735822274241423	0.5237214663568478	-0.01730725416590971	0.2479606209553373	0.47041821908389275	-0.256394418907159	0.2538213222556668	0.42857947112008543	-0.13246428904950958	0.3641377256283684	0.5568156178304293	0.06327370089112667	0.378361905225783	0.6017480759393633	0.3308151644535577	0.41754348197824215	0.4897342681579761	0.5465003326663536	0.36139075534968296	0.5117435674937535	0.6712169651929	0.4020650217623451	0.48282507308517475	0.6909418499749959	0.43481121630240016	0.5389850762739681	0.6781303013354845	0.066619361460717	0.485109090627581	0.04788297150491607	0.03971168238359434	0.42807983385484105	0.2927138833997498	0.018062020911983067	0.3921078972958202	0.5097078273524794	0.04358745369194423	0.3943982925463763	0.6381166151549341	0.027639649484839834	0.36085355227095933	0.6515773352230175	-0.032305654516574855	0.38223565382140384	0.6480425985639697
217	3.6166666666666663	0.29546077910145513	0.5580852269078128	0.4799851745058491	0.2466898109040894	0.546394058743669	0.9031637124347283	0.21756299428517314	0.5691426187457082	1.3133313652968395	0.25101482868804226	0.4315079752776571	1.3392751355100396	0.3100218305586445	0.47976443097805044	1.331388401041878	0.1677774585834794	0.6536805526488904	1.386248839642793	0.11237449626154376	0.4655889628266191	0.4619831002066763	0.051047923635067036	0.5226565318995026	0.9077402839019765	0.030738070589303	0.5658614276391357	1.3293794300869082	0.12560987132217566	0.36517982554726647	1.3132352568714167	0.0744723148448528	0.38277318930457893	1.3025376858821462	0.02227831980798528	0.6033271139349677	1.3878677431255384	0.21956841279410783	0.5199995595326196	-0.018366983709665653	0.2479612034509341	0.47038455489179	-0.2563824413945769	0.253969480731419	0.4258376830140249	-0.13262268284655013	0.36402026268542587	0.5573172077264923	0.06476055450914195	0.3793702608280562	0.5968684393143936	0.3298208779344477	0.4175240512832843	0.49036936574972384	0.5447012410961378	0.3628552291559026	0.5092564122371862	0.6702508909900606	0.40507516312537606	0.48299649557348967	0.6897365328549526	0.43479617306309504	0.539967900239782	0.6771591247831806	0.06640009757017591	0.48639762513257023	0.04807671619303242	0.039597384270822725	0.42826234766969395	0.29287977334816817	0.016960049106427375	0.39340741519604466	0.5087961146279507	0.042610604246967915	0.39429931153263087	0.636999095801478	0.026098005555503928	0.3639723481054108	0.6519784375018995	-0.03804580035648497	0.38947522983130645	0.6498507722682705
218	3.633333333333333	0.2950629605335457	0.5582249124687957	0.48027455396502394	0.2472434193303633	0.5477786299575464	0.9048490929211189	0.21750074654099957	0.5692039206937034	1.3133684565071273	0.25099394116301604	0.43094608275192825	1.3391059546220376	0.3099328721656191	0.47974768096442133	1.3314062098930448	0.16491412811147635	0.6545591000232717	1.38854210376793	0.11213666921082	0.4655604600395978	0.46377807713720093	0.0510492537741166	0.522593317665002	0.9077334083890041	0.030116876934055355	0.5707246530376157	1.3317692954013072	0.12787318139030387	0.36549878833048066	1.3120947539456946	0.07708712499450296	0.3798303621791869	1.3005135856970913	0.021884890209817015	0.6069201897224482	1.389462560719707	0.22250017600504984	0.517156783934039	-0.01908021561811447	0.24798044756631102	0.470340058595376	-0.256361791577182	0.2539599027788619	0.42601078123378133	-0.13263406836007582	0.3640148193933103	0.5580228451212552	0.0663452833634067	0.3794861586581339	0.5952677572951909	0.32859503913717364	0.41769184295264233	0.49028212659056186	0.543299538278924	0.3633304818789092	0.5070579901026776	0.6694704483305348	0.40708993272032834	0.4803420958434427	0.6885319442799356	0.43404123548371587	0.5375394522329233	0.6758530320396198	0.06639334881537613	0.48644440791241617	0.048082985553085975	0.03960288131879566	0.4284187314988146	0.2929765385342536	0.016824571742866026	0.39381853554767515	0.5082589722064268	0.04204795188589378	0.39394068470924043	0.6351656369963371	0.025129775820173065	0.367942584058973	0.6529630776716387	-0.043113718404786144	0.40014928571409125	0.6526141730240648
219	3.65	0.29500976779975513	0.5578127707092587	0.4796673270635104	0.24810743597962615	0.5537340394109657	0.9084943843069796	0.21730182755595734	0.5693235123657918	1.3135726880237701	0.2509510137486449	0.43069778980512474	1.3390762319343454	0.3098086226439286	0.47966543030261677	1.331451237575047	0.1633306182816303	0.6577125381168032	1.3906727839304893	0.11226161585006338	0.4655752033681344	0.46340494287562206	0.05104215381778272	0.5225685847346789	0.9077380593430552	0.029611784955845138	0.5743471614892764	1.3342299366946737	0.12890702341440666	0.3654198703571744	1.3113066080007547	0.07821131517698697	0.3785514008893796	1.2996926404099365	0.021207429976405533	0.6103511842137778	1.3929433555482242	0.2247420614734475	0.516024899132979	-0.019383972416196472	0.24801257027107593	0.47031206032831463	-0.2563449567466534	0.2538821944775586	0.42841729992600963	-0.1325406884601665	0.3640653921270559	0.5582840100885937	0.06737454520320293	0.379332601650109	0.5955565760487628	0.3276535646093702	0.417979292785854	0.4889261542095439	0.5423737485602418	0.36343565717882675	0.5059661873111695	0.6685929201373269	0.4061490248384838	0.4781774425507867	0.6874086525724544	0.4317940056313254	0.532935847723583	0.6751588504939177	0.06644720947806995	0.4861692228875357	0.04801373073789805	0.03975113205617557	0.4282967229715543	0.2928347130892671	0.017405475412848988	0.3943776649186447	0.5089120821789367	0.041485159288106935	0.3953940720788731	0.6344426691182017	0.024285415144644197	0.37261122621461196	0.6543282229222396	-0.04569927334091622	0.41277185310858194	0.6560091442604253
